PathFileType	4	(X/Y/Z)	C:/Users/opensim2020/Desktop/walking_exp_matlab/subject02_walking09_straight_01.trc	
DataRate	CameraRate	NumFrames	NumMarkers	Units	OrigDataRate	OrigDataStartFrame	OrigNumFrames	
100.00	100.00	7	42	mm	100.00	526	293	
Frame#	Time	LFHD			RFHD			LBHD			RBHD			C7			T10			CLAV			STRN			RBAK			LSHO			LUPA			LELB			LFRM			LWRA			LWRB			LFIN			RSHO			RUPA			RELB			RFRM			RWRA			RWRB			RFIN			LASI			RASI			LPSI			RPSI			LTHI			LKNE			LTIB			LANK			LHEE			LTOE			RTHI			RKNE			RTIB			RANK			RHEE			RTOE			*39			*40			*41			
		X1	Y1	Z1	X2	Y2	Z2	X3	Y3	Z3	X4	Y4	Z4	X5	Y5	Z5	X6	Y6	Z6	X7	Y7	Z7	X8	Y8	Z8	X9	Y9	Z9	X10	Y10	Z10	X11	Y11	Z11	X12	Y12	Z12	X13	Y13	Z13	X14	Y14	Z14	X15	Y15	Z15	X16	Y16	Z16	X17	Y17	Z17	X18	Y18	Z18	X19	Y19	Z19	X20	Y20	Z20	X21	Y21	Z21	X22	Y22	Z22	X23	Y23	Z23	X24	Y24	Z24	X25	Y25	Z25	X26	Y26	Z26	X27	Y27	Z27	X28	Y28	Z28	X29	Y29	Z29	X30	Y30	Z30	X31	Y31	Z31	X32	Y32	Z32	X33	Y33	Z33	X34	Y34	Z34	X35	Y35	Z35	X36	Y36	Z36	X37	Y37	Z37	X38	Y38	Z38	X39	Y39	Z39	X40	Y40	Z40	X41	Y41	Z41	X42	Y42	Z42	

1	0.000	-1064.01343	-1298.71350	1713.25720	-920.31537	-1318.76025	1685.46228	-1095.52100	-1422.59631	1638.72815	-959.48694	-1458.09473	1607.93982	-1027.98047	-1490.88171	1498.33008	-1011.19165	-1562.32800	1229.23120	-1042.52380	-1355.85815	1422.38257	-1041.15161	-1316.97864	1246.97168	-962.54504	-1560.38635	1328.82410	-1210.02258	-1430.89050	1470.16516	-1301.01611	-1443.84094	1274.40747	-1329.60693	-1432.84790	1135.69006	-1352.01782	-1381.98987	1013.80621	-1340.19226	-1281.36633	922.57416	-1358.75439	-1330.25659	903.83746	-1374.72839	-1285.56848	855.66986	-844.12396	-1411.34802	1455.07227	-761.52551	-1466.19312	1270.95203	-741.49652	-1471.87134	1125.51953	-720.60730	-1454.82336	1006.44147	-738.16016	-1415.64319	876.14539	-707.47498	-1463.84863	876.69263	-703.77606	-1431.03882	811.07007	-1161.75903	-1388.71436	943.30615	-910.61273	-1340.73706	946.37140	-1045.86084	-1572.03381	1010.73749	-932.80029	-1558.94971	1012.97943	-1184.00146	-1531.04065	649.04926	-1142.26086	-1605.94043	460.97281	-1122.49182	-1715.25281	299.94501	-1081.18872	-1769.26807	82.12573	-1022.18237	-1797.22229	60.64157	-1133.01416	-1630.82800	24.24655	-815.03589	-1352.69189	654.46161	-863.07440	-1294.44104	456.62128	-856.46191	-1280.75208	270.37192	-889.46869	-1239.77051	81.47039	-946.78033	-1261.02502	26.52347	-889.10510	-1077.35852	46.78469	-983.06891	-1411.41895	1771.35681	-3357.35059	2845.84595	1034.22412			 
2	0.010	-1062.47668	-1291.25537	1713.75623	-918.95343	-1311.47131	1685.93518	-1094.21826	-1414.72046	1638.46802	-958.26392	-1450.28430	1607.61047	-1026.55188	-1482.78442	1498.40393	-1009.97516	-1553.89954	1229.30554	-1041.03284	-1347.72607	1421.97632	-1039.71851	-1308.82935	1246.81531	-961.46881	-1551.87830	1328.58228	-1208.57422	-1422.00598	1470.20276	-1298.57520	-1435.63000	1274.11365	-1325.88049	-1425.30469	1134.90723	-1347.15649	-1374.62476	1012.69800	-1333.66016	-1274.22815	921.27710	-1352.70203	-1323.06567	902.68243	-1367.63953	-1278.15515	854.02802	-842.62665	-1403.12390	1454.96606	-760.38879	-1459.12207	1271.24841	-740.31537	-1465.97009	1125.83948	-719.22137	-1449.92847	1006.64648	-736.56360	-1411.83569	875.86340	-706.11249	-1459.99426	877.00171	-702.14709	-1428.49060	811.37842	-1160.75330	-1381.04297	943.10834	-909.41138	-1332.66455	946.56403	-1044.45190	-1563.92126	1010.67957	-931.35803	-1550.73486	1013.25494	-1183.32251	-1523.76624	649.04248	-1142.70691	-1599.38586	461.74823	-1123.03577	-1710.69458	301.81064	-1082.23730	-1768.19067	84.93484	-1023.63062	-1796.73267	64.50756	-1133.20508	-1630.70264	24.17163	-814.57550	-1345.47900	654.31714	-862.56555	-1289.44836	455.92603	-856.94727	-1278.03625	269.41257	-890.02277	-1237.42236	81.09558	-946.88440	-1259.90466	27.18761	-889.55780	-1075.46765	43.59224	-981.88702	-1404.48645	1771.35217	-3360.24438	2845.15576	1034.08093			 
3	0.020	-1061.13831	-1283.87952	1714.67822	-917.36182	-1303.95813	1686.94714	-1092.84363	-1406.75195	1638.55823	-956.86578	-1442.30920	1607.60559	-1025.00842	-1474.32996	1498.47876	-1008.69775	-1545.45691	1229.86719	-1039.54260	-1338.88708	1422.42932	-1039.82654	-1301.68494	1246.96960	-960.26733	-1543.36084	1329.02710	-1207.17065	-1413.28931	1470.66309	-1296.13831	-1427.39233	1273.99805	-1322.15796	-1417.73474	1134.30261	-1342.28857	-1367.27563	1011.81696	-1327.11023	-1267.09314	919.81409	-1347.49866	-1313.94678	900.61768	-1360.34924	-1271.04773	852.79321	-841.00336	-1394.78503	1454.95276	-758.82202	-1452.03540	1271.57629	-739.05774	-1459.69226	1126.29895	-717.89099	-1444.61743	1006.98950	-735.05389	-1407.32385	876.09045	-704.66956	-1455.88501	877.47412	-700.51544	-1424.23352	811.43665	-1159.40259	-1372.88672	942.91290	-908.15057	-1324.63892	946.94421	-1042.93274	-1555.70166	1010.88702	-929.75574	-1542.27979	1013.90173	-1182.66821	-1516.03955	649.11359	-1142.75500	-1591.99146	462.29865	-1123.73108	-1705.58020	303.93982	-1083.50647	-1766.89844	88.18298	-1024.66357	-1795.65466	68.31947	-1133.38037	-1630.64905	24.13079	-813.93378	-1338.26538	654.96185	-861.78546	-1284.76025	456.35919	-857.62048	-1273.75171	269.25250	-890.02313	-1234.09705	81.41286	-946.53381	-1257.87915	28.18169	-888.50378	-1072.38501	41.82137	-980.62286	-1397.46814	1771.57214	-3360.31592	2845.25269	1033.99097			 
4	0.030	-1059.70935	-1276.45850	1715.92603	-915.82770	-1296.42468	1688.23621	-1091.31750	-1398.72681	1639.00964	-955.33966	-1434.27380	1608.03821	-1023.36188	-1465.58118	1498.84436	-1007.32849	-1537.05420	1230.74048	-1037.71399	-1330.21094	1422.98572	-1036.42163	-1291.63464	1247.71619	-958.86847	-1534.82214	1329.98071	-1205.58154	-1404.28040	1471.11218	-1293.68140	-1419.17993	1274.21545	-1318.36682	-1410.24109	1133.96069	-1337.38611	-1360.05347	1011.12842	-1320.65881	-1260.32959	918.75323	-1342.02795	-1306.94727	899.75861	-1353.55444	-1263.86536	851.24176	-839.34833	-1386.28137	1455.32336	-757.43872	-1443.71985	1272.20813	-737.74103	-1452.70117	1126.86792	-716.33844	-1439.13281	1007.64917	-733.47827	-1402.77747	876.37640	-703.20404	-1451.47290	878.18750	-698.78802	-1420.66003	812.12488	-1157.83813	-1364.56213	942.82690	-906.63763	-1316.62708	947.57837	-1041.34814	-1547.29028	1011.38135	-927.90405	-1533.67725	1015.08551	-1182.36987	-1508.02808	649.41339	-1142.59155	-1583.84802	462.90274	-1124.50122	-1699.86963	306.44412	-1084.69543	-1765.25500	91.95742	-1026.02026	-1794.50537	73.13822	-1133.77783	-1630.73914	24.10462	-813.07361	-1331.01831	656.20654	-861.06305	-1278.52649	456.98068	-856.45709	-1268.10718	270.11801	-889.61755	-1230.84094	81.37901	-946.17212	-1256.12671	29.13260	-887.11902	-1070.39880	40.63456	-979.13153	-1390.32397	1771.92810	-3360.34619	2845.29883	1034.11792			 
5	0.040	-1057.87231	-1268.77124	1717.20593	-914.12781	-1288.90747	1689.52795	-1089.71021	-1390.70837	1639.64746	-953.75824	-1426.19531	1608.60059	-1021.62158	-1456.96448	1499.81555	-1005.97260	-1528.61426	1231.65149	-1036.08850	-1321.54480	1423.89856	-1034.69177	-1282.90295	1248.37195	-957.12622	-1525.87476	1330.59204	-1204.00464	-1395.49915	1472.12817	-1291.30432	-1411.07483	1274.78638	-1314.65576	-1402.85474	1133.97253	-1332.57166	-1353.13550	1010.79163	-1314.52856	-1254.16675	918.49109	-1334.65430	-1303.90930	900.80731	-1346.75195	-1257.40967	850.25983	-837.40820	-1377.54810	1455.97620	-755.84302	-1435.83423	1272.91663	-736.37988	-1445.95264	1127.82007	-715.04266	-1433.09204	1008.34851	-731.77618	-1398.23889	876.67230	-701.76575	-1446.63928	879.16138	-697.29370	-1416.16052	812.61969	-1156.13159	-1356.02002	943.01947	-905.02502	-1308.33020	948.56531	-1039.84558	-1538.62341	1011.88806	-926.01898	-1525.00940	1016.66345	-1181.80493	-1499.55615	649.87610	-1142.41895	-1574.91833	463.45236	-1125.20898	-1693.65576	309.38058	-1085.83130	-1763.26770	96.10291	-1027.14514	-1792.68005	78.18041	-1133.91736	-1630.50354	24.14185	-812.40924	-1323.02173	657.74030	-860.14734	-1271.82996	458.29196	-854.28345	-1261.54272	271.34692	-889.09973	-1228.60596	81.61524	-945.93018	-1255.36060	29.45189	-886.62830	-1069.42505	39.17273	-977.78613	-1383.14319	1772.94580	-3360.22168	2845.16357	1034.06055			 
6	0.050	-1056.29102	-1261.22925	1718.69067	-912.50885	-1281.27246	1690.98999	-1088.08313	-1382.60461	1640.32837	-952.11145	-1418.02026	1609.23718	-1019.83966	-1448.00122	1500.89893	-1004.58252	-1520.11975	1232.72632	-1034.33936	-1312.81372	1424.85791	-1034.80420	-1275.52100	1249.16846	-955.30579	-1517.06335	1331.65747	-1202.34644	-1386.41541	1473.23511	-1288.53125	-1402.73535	1275.32483	-1310.90222	-1395.44922	1134.36951	-1327.83472	-1346.41943	1010.77325	-1308.13879	-1247.94617	917.64691	-1330.03821	-1294.17896	898.86591	-1340.29578	-1251.50989	849.68750	-835.66528	-1368.41113	1456.71655	-753.90967	-1427.58545	1273.93604	-735.03040	-1438.33496	1128.83130	-713.51642	-1426.72144	1009.38214	-730.25830	-1393.01221	877.32526	-700.14868	-1441.52441	880.33649	-695.66785	-1411.74707	813.51733	-1154.20068	-1347.21118	943.48755	-903.21863	-1299.97302	949.80206	-1038.20593	-1529.89111	1012.72192	-924.09052	-1516.71484	1018.84265	-1180.55786	-1490.28796	650.38483	-1142.56873	-1565.57520	464.41525	-1125.62634	-1687.03613	312.68732	-1086.90247	-1760.90356	100.71955	-1028.31604	-1790.44885	83.78371	-1134.15063	-1630.37048	24.05021	-811.70593	-1314.78333	659.41589	-859.12738	-1264.67224	460.06784	-852.55518	-1255.54248	272.57703	-888.81134	-1227.48938	81.79301	-945.41595	-1255.10364	28.95246	-887.59955	-1068.96802	38.19504	-976.32166	-1375.90625	1773.85999	-3357.35498	2845.90039	1034.08252			 
7	0.060	-1054.32361	-1253.40942	1720.19312	-910.70715	-1273.60400	1692.53882	-1086.38098	-1374.42419	1641.16785	-950.40234	-1409.77197	1609.95264	-1018.09430	-1438.92371	1502.06189	-1002.98566	-1511.54065	1234.00183	-1032.41736	-1303.93506	1426.08533	-1030.96753	-1265.18066	1250.36951	-953.41504	-1508.32251	1333.10461	-1200.60999	-1377.28076	1474.63184	-1285.94470	-1394.45105	1276.37305	-1307.23047	-1388.07056	1135.13049	-1322.96130	-1339.81323	1011.03284	-1301.53906	-1241.73560	917.05548	-1324.70349	-1288.47546	898.88794	-1333.42529	-1245.99927	849.32813	-833.82996	-1359.18774	1457.66125	-752.14923	-1418.80688	1275.26514	-733.55817	-1430.45789	1130.21509	-711.97546	-1419.85547	1010.66473	-728.66309	-1387.29749	878.41711	-698.48932	-1435.92383	881.70856	-694.11859	-1407.04053	814.66223	-1152.22217	-1338.22900	944.24823	-901.41309	-1291.28662	951.34125	-1036.55908	-1520.96753	1013.96521	-922.30713	-1507.95435	1020.86353	-1179.21619	-1480.71179	651.01642	-1142.72156	-1555.51477	465.58905	-1126.06079	-1679.78589	316.31497	-1088.03467	-1758.01892	105.72130	-1029.47522	-1787.83423	90.19020	-1134.35425	-1630.14771	24.05795	-810.81079	-1305.95349	661.14148	-858.39362	-1256.70374	461.66730	-851.35004	-1249.97156	273.47128	-888.35077	-1226.83020	82.35502	-944.63806	-1255.55115	29.58707	-888.80359	-1068.21216	37.77756	-974.66205	-1368.58728	1774.79272	-3360.31543	2845.25244	1033.99768			 
